<svg xmlns="http://www.w3.org/2000/svg" width="219" height="58" viewBox="13.3 -1.2 219.3 58.1"><style>.a{fill:#FFF;}.b{fill:#ED3436;}</style><path d="M211.9 32.8h-5.8l-1 3.2c0 0.2-0.1 0.3-0.2 0.4 -0.1 0.1-0.3 0.1-0.5 0.1h-2.9c-0.2 0-0.3 0-0.3-0.2 0-0.1 0-0.2 0-0.4l5.2-15.8c0.1-0.3 0.2-0.5 0.3-0.7 0.1-0.2 0.2-0.3 0.4-0.4 0.1-0.1 0.3-0.2 0.5-0.2 0.2 0 0.4-0.1 0.7-0.1h1.5c0.3 0 0.5 0 0.7 0 0.2 0 0.4 0.1 0.5 0.2 0.2 0.1 0.3 0.2 0.4 0.4 0.1 0.2 0.2 0.4 0.3 0.7l5.2 15.8c0 0.1 0 0.2 0 0.3 0 0.1-0.1 0.2-0.3 0.2h-3c-0.2 0-0.3 0-0.5-0.1 -0.1 0-0.2-0.2-0.3-0.3L211.9 32.8zM207 29.7h3.9l-1.9-6.8h-0.2L207 29.7z" class="b"/><path d="M219.8 36.5c-0.6 0-1-0.1-1.2-0.4 -0.2-0.2-0.3-0.6-0.3-1.2V20.4c0-0.5 0.1-0.9 0.3-1.2 0.2-0.3 0.6-0.4 1.2-0.4h4.7c1.5 0 2.7 0.2 3.8 0.7 1 0.5 1.9 1.1 2.5 1.9 0.6 0.8 1.1 1.7 1.4 2.8 0.3 1.1 0.4 2.2 0.4 3.4 0 1.2-0.1 2.3-0.4 3.3 -0.2 1.1-0.7 2-1.3 2.8 -0.6 0.8-1.4 1.5-2.4 2 -1 0.5-2.2 0.7-3.7 0.7H219.8zM228.6 27.6c0-0.8-0.1-1.5-0.2-2.1 -0.1-0.7-0.4-1.2-0.7-1.7 -0.3-0.5-0.8-0.9-1.4-1.1 -0.6-0.3-1.3-0.4-2.2-0.4h-2v10.9h2c0.9 0 1.6-0.1 2.2-0.4 0.6-0.3 1-0.7 1.4-1.1 0.3-0.5 0.6-1.1 0.7-1.7C228.5 29.1 228.6 28.4 228.6 27.6z" class="b"/><path d="M190.9 24.7V23.7c0-0.4 0.1-0.8 0.3-1.1 0.2-0.3 0.7-0.5 1.3-0.5h6.7c0.2 0 0.3 0 0.4-0.1 0.1-0.1 0.1-0.2 0.1-0.4v-2.1c0-0.2 0-0.4-0.1-0.5 -0.1-0.1-0.2-0.1-0.4-0.1h-7.5c-0.9 0-1.6 0.1-2.2 0.4 -0.6 0.3-1.1 0.6-1.4 1 -0.4 0.4-0.6 0.9-0.8 1.5 -0.2 0.6-0.3 1.1-0.3 1.7v8.4c0 0.6 0.1 1.1 0.2 1.7 0.1 0.6 0.4 1 0.7 1.5 0.4 0.4 0.8 0.8 1.4 1.1 0.6 0.3 1.4 0.4 2.3 0.4h7.4c0.2 0 0.3 0 0.4-0.1 0.1-0.1 0.1-0.2 0.1-0.4v-2.1c0-0.2 0-0.4-0.1-0.5 -0.1-0.1-0.2-0.1-0.4-0.1h-6.6c-0.5 0-0.9-0.1-1.2-0.3 -0.3-0.2-0.4-0.6-0.4-1.2v-2.4c0 0 5.4 0 5.4 0 0 0 0.1 0 0.2-0.1 0.1 0 0.2-0.1 0.2-0.2l1.5-2c0.1-0.2 0.2-0.4 0.1-0.6 -0.1-0.2-0.3-0.3-0.5-0.3l-6.9 0V24.7L190.9 24.7z" class="b"/><path d="M105.6 34c0 0.6-0.1 1.1-0.4 1.5 -0.3 0.4-0.7 0.7-1.4 0.9 -0.3 0.1-0.7 0.1-1.1 0.2 -0.4 0-0.8 0.1-1.2 0.1 -0.4 0-0.8 0-1.1 0 -0.4 0-0.6 0-0.9 0 -1.4 0-2.7-0.1-3.7-0.4 -1-0.2-1.9-0.7-2.5-1.2 -0.7-0.6-1.1-1.4-1.4-2.3 -0.3-1-0.5-2.2-0.5-3.7l0-9.8c0-0.2 0.1-0.3 0.2-0.4 0.1-0.1 0.2-0.1 0.4-0.1h2.7c0.3 0 0.4 0 0.5 0.1 0.1 0.1 0.1 0.2 0.1 0.4v10c0 0.7 0.1 1.3 0.2 1.8 0.1 0.5 0.3 0.9 0.6 1.3 0.3 0.3 0.7 0.6 1.2 0.7 0.5 0.2 1.2 0.2 2 0.2 0.1 0 0.3 0 0.5 0 0.2 0 0.4 0 0.7 0 0.2 0 0.5 0 0.8 0 0.3 0 0.5-0.1 0.7-0.1V19.4c0-0.2 0-0.3 0.1-0.4 0.1-0.1 0.2-0.1 0.4-0.1h2.7c0.3 0 0.4 0 0.5 0.1 0.1 0.1 0.1 0.2 0.1 0.4V34z" class="a"/><path d="M112.2 25.5v10.4c0 0.2 0 0.4-0.1 0.4 -0.1 0.1-0.2 0.1-0.5 0.1h-2.6c-0.2 0-0.3 0-0.4-0.1 -0.1-0.1-0.1-0.2-0.1-0.4V20.6c0-0.7 0.1-1.1 0.4-1.4 0.2-0.3 0.7-0.4 1.3-0.4h1.1c0.3 0 0.5 0 0.6 0 0.2 0 0.3 0.1 0.5 0.2 0.1 0.1 0.3 0.2 0.4 0.4 0.1 0.2 0.3 0.3 0.4 0.6l6.4 9.9h0.1V19.4c0-0.2 0-0.3 0.1-0.4 0.1-0.1 0.2-0.1 0.5-0.1h2.6c0.4 0 0.6 0.2 0.6 0.5v15.4c0 0.5-0.1 1-0.3 1.3 -0.2 0.3-0.7 0.5-1.3 0.5h-1.1c-0.3 0-0.5 0-0.6 0 -0.2 0-0.3-0.1-0.5-0.2 -0.1-0.1-0.3-0.2-0.4-0.3 -0.1-0.1-0.3-0.3-0.4-0.6l-6.4-9.8H112.2z" class="a"/><path d="M129.9 36.4c-0.1 0.1-0.2 0.1-0.5 0.1h-2.7c-0.2 0-0.3 0-0.4-0.1 -0.1-0.1-0.1-0.2-0.1-0.4V19.4c0-0.2 0-0.3 0.1-0.4 0.1-0.1 0.2-0.1 0.4-0.1h2.7c0.3 0 0.4 0 0.5 0.1 0.1 0.1 0.1 0.2 0.1 0.4v16.6C130 36.2 129.9 36.3 129.9 36.4z" class="a"/><path d="M155.7 32.8h-5.8l-1 3.2c-0.1 0.2-0.1 0.3-0.2 0.4 -0.1 0.1-0.3 0.1-0.5 0.1h-2.9c-0.2 0-0.3 0-0.3-0.2 0-0.1 0-0.2 0-0.4l5.2-15.8c0.1-0.3 0.2-0.5 0.3-0.7 0.1-0.2 0.2-0.3 0.4-0.4 0.1-0.1 0.3-0.2 0.5-0.2 0.2 0 0.4-0.1 0.7-0.1h1.5c0.3 0 0.5 0 0.7 0 0.2 0 0.4 0.1 0.5 0.2 0.2 0.1 0.3 0.2 0.4 0.4 0.1 0.2 0.2 0.4 0.3 0.7l5.2 15.8c0 0.1 0 0.2 0 0.3 0 0.1-0.1 0.2-0.3 0.2H157.4c-0.2 0-0.3 0-0.5-0.1 -0.1 0-0.2-0.2-0.3-0.3L155.7 32.8zM150.8 29.7h4l-1.9-6.8h-0.2L150.8 29.7z" class="a"/><path d="M145.9 22.1c-0.3-0.7-0.7-1.2-1.2-1.7 -0.5-0.5-1.1-0.9-1.9-1.1 -0.7-0.3-1.5-0.4-2.5-0.4h-6.2c-0.6 0-1 0.1-1.2 0.4 -0.2 0.3-0.3 0.7-0.3 1.1v15.6c0 0.2 0 0.3 0.1 0.4 0.1 0.1 0.2 0.1 0.4 0.1h2.6c0.3 0 0.4 0 0.5-0.1 0.1-0.1 0.1-0.2 0.1-0.4V22.2h3.3c0.5 0 0.9 0.1 1.2 0.2 0.3 0.2 0.6 0.4 0.8 0.6 0.2 0.2 0.3 0.5 0.4 0.8 0.1 0.3 0.1 0.5 0.1 0.8 0 0.7-0.2 1.2-0.6 1.7 -0.4 0.5-1 0.7-1.9 0.7h-1.4c-0.2 0-0.4 0.1-0.5 0.3 -0.1 0.2-0.1 0.4 0.1 0.6l1.5 2c0.1 0.1 0.1 0.1 0.2 0.2 0.1 0 0.2 0.1 0.2 0.1 1.4 0 2.5-0.2 3.4-0.7 0.8-0.4 1.5-1 1.9-1.6 0.4-0.6 0.7-1.2 0.9-1.9 0.1-0.6 0.2-1.2 0.2-1.6C146.3 23.5 146.2 22.8 145.9 22.1z" class="a"/><path d="M177.7 35.6l-4.8-6.4c0.7-0.4 1.3-0.9 1.6-1.4 0.4-0.6 0.7-1.2 0.9-1.9 0.1-0.6 0.2-1.2 0.2-1.6 0-0.8-0.1-1.5-0.4-2.2 -0.3-0.7-0.7-1.2-1.2-1.7 -0.5-0.5-1.1-0.9-1.9-1.1 -0.7-0.3-1.5-0.4-2.5-0.4h-6.2c-0.6 0-1 0.1-1.2 0.4 -0.2 0.3-0.3 0.7-0.3 1.1v15.6c0 0.2 0 0.3 0.1 0.4 0.1 0.1 0.2 0.1 0.4 0.1h2.6c0.3 0 0.4 0 0.5-0.1 0.1-0.1 0.1-0.2 0.1-0.4V22.2h3.3c0.5 0 0.9 0.1 1.2 0.2 0.3 0.2 0.6 0.4 0.8 0.6 0.2 0.2 0.3 0.5 0.4 0.8 0.1 0.3 0.1 0.5 0.1 0.8 0 0.7-0.2 1.2-0.6 1.7 -0.4 0.5-1 0.7-1.9 0.7h-1.4c-0.2 0-0.4 0.1-0.5 0.3 -0.1 0.2-0.1 0.4 0.1 0.6l5.8 7.7c0.4 0.5 1 0.9 1.7 0.9h2.4C177.8 36.5 178 36 177.7 35.6z" class="a"/><path d="M82.2 17.6c-0.1-0.1-0.2-0.1-0.2 0.1 0 0.7 0 1.4-0.1 2.2 -0.5 4.2-3.2 7.9-6.8 10.1 -0.2 0.1-0.2 0.4-0.1 0.6l2.2 2.2c0.2 0.2 0.6 0.3 0.9 0.1 3.2-2.2 5.3-5.8 5.3-9.9C83.4 20.9 82.9 19.1 82.2 17.6z" class="b"/><path d="M19.3 42.8c0 2.8 1.4 5.2 3.6 6.7 0.2 0.1 0.4 0 0.4-0.3V-0.7c0-0.3-0.2-0.5-0.5-0.5h-3c-0.3 0-0.5 0.2-0.5 0.5V42.8z" class="b"/><path d="M13.3 36.8c0 2.8 1.4 5.2 3.6 6.7 0.2 0.1 0.4 0 0.4-0.3V-0.7c0-0.3-0.2-0.5-0.5-0.5h-2.9c-0.3 0-0.5 0.2-0.5 0.5V36.8z" class="b"/><path d="M80.9 16.8c0-1.9-0.4-3.6-1.2-5.2 -0.1-0.1-0.2-0.1-0.2 0.1 0 0.7 0 1.4-0.1 2.2 -0.7 5.1-4.4 9.5-9.2 11.2 -0.2 0.1-0.3 0.4-0.1 0.6l2.2 2.2c0.2 0.2 0.6 0.3 0.9 0.2C77.7 26.2 80.9 21.9 80.9 16.8z" class="b"/><path d="M77.6 14.8c0.4-1.3 0.7-2.6 0.7-4 0-0.7-0.1-1.4-0.2-2 -0.2-1.4-0.7-2.8-1.4-4 -0.4-0.7-0.9-1.4-1.4-2 -2.2-2.5-5.4-4-9-4H43.8c-0.3 0-0.5 0.2-0.5 0.5v41.5H29.3V-0.7c0-0.3-0.2-0.5-0.5-0.5h-2.9c-0.3 0-0.5 0.2-0.5 0.5v49.5c0 1.5 0.4 2.8 1.1 4 0.7 1.2 1.7 2.2 2.9 2.9 1.2 0.7 2.5 1.1 4 1.1h25.5c0.3 0 0.5-0.2 0.5-0.5V14.8h0.1 13.9c-1.6 2.8-4.9 4.5-8.4 4.9 -0.2 0-0.3 0.3-0.1 0.4l2.2 2.2c0.2 0.2 0.6 0.4 0.9 0.3C72.4 22.1 76.1 19 77.6 14.8zM29.3 44.8h18l0 0V2.8h19c2 0 3.9 0.8 5.3 2H49.8c-0.3 0-0.5 0.2-0.5 0.5v41.5H29.3V44.8zM55.8 10.8c-0.3 0-0.5 0.2-0.5 0.5v41.5H33.3c-1.5 0-2.8-0.8-3.4-2h23c0.3 0 0.5-0.2 0.5-0.5V8.8h20.7c0.2 0.6 0.3 1.3 0.3 2H55.8z" class="b"/><rect x="181.9" y="16.8" width="1" height="21.8" class="a"/></svg>